# xmcd
#
# Track frame offsets:
# 150
# 18012
# 36030
# 51407
# 67982
# 82855
# 97995
# 114170
# 129347
# 143407
#
# Disc length: 2133 seconds
#
#
# Revision: 3
# Processed by: cddbd v1.5.2PL0 Copyright (c) Steve Scherf et al.
# Submitted via: FreeRIP 2.951 
#
DISCID=6b08530a
DTITLE=Brand New Heavies - Heavy Rhyme Experience: vol. 1
DYEAR=1992
DGENRE=Acid Punk
TTITLE0=bonafied funk (feat main source)
TTITLE1=it's gettin hectic (feat gang starr)
TTITLE2=who makes the loot (feat grand puba)
TTITLE3=wake me when i'm dead (feat masta ace)
TTITLE4=jump n' move (feat jamalski)
TTITLE5=death threat (feat kool g. rap)
TTITLE6=state of yo (feat black sheep)
TTITLE7=do what I gotta do (feat ed o.g.)
TTITLE8=whatgabouthat (feat tiger)
TTITLE9=soul flower (feat the pharcyde)
EXTD=Except there never was a volume 2...\nAnd anyway why are there no\ncategories for funk or hiphop?
EXTT0=
EXTT1=
EXTT2=
EXTT3=
EXTT4=
EXTT5=
EXTT6=
EXTT7=
EXTT8=
EXTT9=
PLAYORDER=
